P3
3 3 
255
0 0 0 0 0 0 0 0 0
0 0 0 0 255 0 0 0 0
0 0 0 0 0 0 0 0 0 
