#define r_d_larrow_width 22
#define r_d_larrow_height 22
static char r_d_larrow_text_bits[] = {
0x00, 0x00, 0x00, 0x7c, 0x00, 0x00, 0xfc, 0x03, 0x00, 0xfc, 0x07, 0x00, 
0xfc, 0x3f, 0x00, 0xfc, 0x7f, 0x00, 0xfc, 0xff, 0x03, 0xfc, 0xff, 0x07, 
0xfc, 0xff, 0x3f, 0xfc, 0xff, 0xff, 0xfc, 0xff, 0xff, 0xfc, 0xff, 0x3f, 
0xfc, 0xff, 0x1f, 0xfc, 0xff, 0x03, 0xfc, 0xff, 0x01, 0xfc, 0x3f, 0x00, 
0xfc, 0x1f, 0x00, 0xfc, 0x03, 0x00, 0xfc, 0x00, 0x00, 0x3c, 0x00, 0x00, 
0x0c, 0x00, 0x00, 0x04, 0x00, 0x00}
