#define r_d_rarrow_width 22
#define r_d_rarrow_height 22
static char r_d_rarrow_text_bits[] = {
0x00, 0x00, 0x00, 0x00, 0x00, 0xfc, 0x00, 0x80, 0xff, 0x00, 0xc0, 0xff, 
0x00, 0xf8, 0xff, 0x00, 0xfc, 0xff, 0x80, 0xff, 0xff, 0xc0, 0xff, 0xff, 
0xf8, 0xff, 0xff, 0xfc, 0xff, 0xff, 0xfc, 0xff, 0xff, 0xf8, 0xff, 0xff, 
0xf0, 0xff, 0xff, 0x80, 0xff, 0xff, 0x00, 0xff, 0xff, 0x00, 0xf8, 0xff, 
0x00, 0xe0, 0xff, 0x00, 0x80, 0xff, 0x00, 0x00, 0xfe, 0x00, 0x00, 0xf8, 
0x00, 0x00, 0xe0, 0x00, 0x00, 0xc0}
