#define r_d_rend_width 22
#define r_d_rend_height 22
static char r_d_rend_text_bits[] = {
0x00, 0x00, 0x00, 0x00, 0x1c, 0x3f, 0x00, 0x1f, 0x3f, 0x00, 0x1f, 0x3f, 
0xc0, 0x1f, 0x3f, 0xc0, 0x1f, 0x3f, 0xf0, 0x1f, 0x3f, 0xf0, 0x1f, 0x3f, 
0xfc, 0x1f, 0x3f, 0xfc, 0x1f, 0x3f, 0xfc, 0x1f, 0x3f, 0xfc, 0x1f, 0x3f, 
0xf8, 0x1f, 0x3f, 0xf0, 0x1f, 0x3f, 0xe0, 0x1f, 0x3f, 0xc0, 0x1f, 0x3f, 
0x80, 0x1f, 0x3f, 0x00, 0x1f, 0x3f, 0x00, 0x1e, 0x3f, 0x00, 0x1c, 0x3f, 
0x00, 0x18, 0x3f, 0x00, 0x10, 0x3f}
