#define r_d_rplay_width 22
#define r_d_rplay_height 22
static char r_d_rplay_text_bits[] = {
0x00, 0x00, 0x00, 0x00, 0x00, 0x00, 0x00, 0x00, 0x00, 0x00, 0x00, 0x00, 
0x00, 0x00, 0x00, 0x00, 0x1c, 0xe0, 0x00, 0x1f, 0xf8, 0xc0, 0x1f, 0xfe, 
0xf0, 0x9f, 0xff, 0xfc, 0xff, 0xff, 0xfc, 0xff, 0xff, 0xf0, 0x9f, 0xff, 
0xe0, 0x1f, 0xff, 0x00, 0x1f, 0xf8, 0x00, 0x1e, 0xf0, 0x00, 0x10, 0x80, 
0x00, 0x00, 0x00, 0x00, 0x00, 0x00, 0x00, 0x00, 0x00, 0x00, 0x00, 0x00, 
0x00, 0x00, 0x00, 0x00, 0x00, 0x00}
