#define r_d_lend_width 22
#define r_d_lend_height 22
static char r_d_lend_text_bits[] = {
0x00, 0x00, 0x00, 0xf8, 0x61, 0x00, 0xf8, 0xe1, 0x01, 0xf8, 0xe1, 0x01, 
0xf8, 0xe1, 0x07, 0xf8, 0xe1, 0x07, 0xf8, 0xe1, 0x1f, 0xf8, 0xe1, 0x1f, 
0xf8, 0xe1, 0x7f, 0xf8, 0xe1, 0xff, 0xf8, 0xe1, 0xff, 0xf8, 0xe1, 0x7f, 
0xf8, 0xe1, 0x3f, 0xf8, 0xe1, 0x1f, 0xf8, 0xe1, 0x0f, 0xf8, 0xe1, 0x07, 
0xf8, 0xe1, 0x03, 0xf8, 0xe1, 0x01, 0xf8, 0xe1, 0x00, 0xf8, 0x61, 0x00, 
0xf8, 0x21, 0x00, 0xf8, 0x01, 0x00}
