#define r_d_lplay_width 22
#define r_d_lplay_height 22
static char r_d_lplay_text_bits[] = {
0x00, 0x00, 0x00, 0x00, 0x00, 0x00, 0x00, 0x00, 0x00, 0x00, 0x00, 0x00, 
0x00, 0x00, 0x00, 0x1c, 0xe0, 0x00, 0x7c, 0xe0, 0x03, 0xfc, 0xe1, 0x0f, 
0xfc, 0xe7, 0x3f, 0xfc, 0xff, 0xff, 0xfc, 0xff, 0xff, 0xfc, 0xe7, 0x3f, 
0xfc, 0xe3, 0x1f, 0x7c, 0xe0, 0x03, 0x3c, 0xe0, 0x01, 0x04, 0x20, 0x00, 
0x00, 0x00, 0x00, 0x00, 0x00, 0x00, 0x00, 0x00, 0x00, 0x00, 0x00, 0x00, 
0x00, 0x00, 0x00, 0x00, 0x00, 0x00}
