#define r_d_stop_width 22
#define r_d_stop_height 22
static char r_d_stop_text_bits[] = {
0x00, 0x00, 0x00, 0x00, 0x00, 0x00, 0xe0, 0xff, 0x3f, 0xe0, 0xff, 0x3f, 
0xe0, 0xff, 0x3f, 0xe0, 0xff, 0x3f, 0xe0, 0xff, 0x3f, 0xe0, 0xff, 0x3f, 
0xe0, 0xff, 0x3f, 0xe0, 0xff, 0x3f, 0xe0, 0xff, 0x3f, 0xe0, 0xff, 0x3f, 
0xe0, 0xff, 0x3f, 0xe0, 0xff, 0x3f, 0xe0, 0xff, 0x3f, 0xe0, 0xff, 0x3f, 
0xe0, 0xff, 0x3f, 0xe0, 0xff, 0x3f, 0xe0, 0xff, 0x3f, 0x00, 0x00, 0x00, 
0x00, 0x00, 0x00, 0x00, 0x00, 0x00}
